<svg xmlns="http://www.w3.org/2000/svg" version="1.1" xmlns:xlink="http://www.w3.org/1999/xlink" xmlns:svgjs="http://svgjs.dev/svgjs" width="100%" height="100%" viewBox="0 0 1000 600"><rect width="1000" height="600" x="0" y="0" fill="#ffffff"/><g><circle r="166.66666666666666" cx="334.1597696940104" cy="356.38193170921716" fill="#fce77d" transform="matrix(0.7462997484639259,0,0,0.746299748463926,0,34.03226545241429)"/><path d="M332.07304968671804 431.3818573032747L332.07304968671804 431.3818573032747Q322.4162669127251 431.3818573032747 316.2931964471965 429.7368532976103Q310.1396629445259 428.0918492919459 306.5145615246359 426.56869743484924Q302.91992314188775 425.0455455777525 300.2696389105395 425.0455455777525L300.2696389105395 425.0455455777525Q297.8630589763267 425.0455455777525 296.76638963921715 426.6905495834169Q295.6697203021076 428.3355535890813 295.2432377821205 430.28518796616504L295.2432377821205 430.28518796616504L289.75989109657246 430.28518796616504L287.10960686522424 386.66211877891635L292.8061948107658 386.66211877891635Q293.9028641478754 393.6686173215611 296.8882417877849 400.37048549278643Q299.84315639055245 407.0418906268699 304.77816840754565 412.3119960524243Q309.71318042453885 417.58210147797877 316.3845855586223 420.75025734073995Q323.0864537298477 423.9488762406429 331.64656716673096 423.9488762406429L331.64656716673096 423.9488762406429Q341.3033499407239 423.9488762406429 347.8833659633815 420.11053356075934Q354.4633819860391 416.27219088087566 357.8447791087937 409.6921748582181Q361.2566392686903 403.1121588355604 361.2566392686903 395.4354734757932L361.2566392686903 395.4354734757932Q361.2566392686903 384.68202136469074 354.7680123574585 377.9801531934653Q348.30984848336857 371.30874805938186 335.8200032551759 365.82540137383387L335.8200032551759 365.82540137383387L325.9499792211894 361.651965285389Q315.62300963007397 357.2652879369506 307.1847483417584 351.87333036282837Q298.7464870534428 346.51183582584804 293.68962288788185 338.62190920608725Q288.66322175946283 330.7319825863266 288.66322175946283 319.095102398108L288.66322175946283 319.095102398108Q288.66322175946283 306.14831161278624 294.69490311356566 297.83190247303844Q300.7265844676685 289.48503029614864 310.8098497616485 285.4334463562715Q320.89311505562847 281.38186241639437 333.16971902382767 281.38186241639437L333.16971902382767 281.38186241639437Q342.156314980698 281.38186241639437 347.3350312948267 282.905014273491Q352.48328457181344 284.42816613058767 355.56005132314874 285.9817810248263Q358.6063550373421 287.50493288192297 361.0433980086967 287.50493288192297L361.0433980086967 287.50493288192297Q362.9930323857805 287.50493288192297 363.87646046289655 285.85992887625855Q364.75988854001264 284.21492487059413 364.9731298000062 282.0215861963749L364.9731298000062 282.0215861963749L370.02999396556714 282.0215861963749L372.22333263978635 320.86195855234007L366.52674469424477 320.86195855234007Q365.1863710599997 311.8448995583278 361.2566392686903 304.62515975568954Q357.29644444023893 297.37495691590937 350.62503930615554 293.1101317160387Q343.92317113493016 288.8148434790261 333.83990584095017 288.8148434790261L333.83990584095017 288.8148434790261Q322.6599712098606 288.8148434790261 315.4097683700804 294.8465248331289Q308.15956553030026 300.87820618723174 308.15956553030026 313.6117557125599L308.15956553030026 313.6117557125599Q308.15956553030026 321.0751998123336 311.23633228163555 326.10160094075263Q314.3130990329708 331.15846510631366 320.0096869785124 334.87495563762945Q325.70627492405396 338.62190920608725 333.3829602838212 341.9119172174161L333.3829602838212 341.9119172174161L343.7099298749366 346.2985945658545Q353.36671264892954 350.22832635716395 361.8963630486709 355.4984317827184Q370.4564764855542 360.76853720827296 375.84843405967644 368.87170508802717Q381.2099285966567 377.0053360049235 381.2099285966567 389.70842249310977L381.2099285966567 389.70842249310977Q381.2099285966567 399.3652052671026 377.79806843676016 407.1637427754375Q374.41667131400555 414.93181724663066 367.9280444027737 420.32377482075276Q361.4698805286838 425.6852693577331 352.36143242324573 428.54879484907485Q343.2529843178076 431.3818573032747 332.07304968671804 431.3818573032747Z " fill="#f96167" transform="matrix(0.7462997484639259,0,0,0.746299748463926,0,34.03226545241429)"/><path d="M618.1794374739003 398.1919388890583L618.1794374739003 398.1919388890583Q610.8730455467091 398.1919388890583 606.2402859966605 396.9473169203885Q601.5844778916365 395.70269495171874 598.8416998495679 394.5502672029504Q596.1219703624747 393.3978394541821 594.1167460796179 393.3978394541821L594.1167460796179 393.3978394541821Q592.2959102365639 393.3978394541821 591.4661622574507 394.64246142285185Q590.6364142783376 395.8870833915216 590.3137345086824 397.36219090994507L590.3137345086824 397.36219090994507L586.1649946131165 397.36219090994507L584.1597703302597 364.35666018522056L588.469850110653 364.35666018522056Q589.2995980897664 369.6578278295549 591.5583564773523 374.72850992413544Q593.7940663099627 379.7761434637406 597.5279322159721 383.763543474479Q601.2617981219814 387.75094348521736 606.3094316615866 390.14799320265547Q611.3801137561671 392.56809147506885 617.8567577042451 392.56809147506885L617.8567577042451 392.56809147506885Q625.1631496314362 392.56809147506885 630.1416375061153 389.66397354817275Q635.1201253807944 386.75985562127664 637.6785149830602 381.78136774659754Q640.259953140301 376.8028798719183 640.259953140301 370.9946440181261L640.259953140301 370.9946440181261Q640.259953140301 362.85850411182184 635.3506109305481 357.7878220172412Q630.4643172757704 352.740188477636 621.0144097358703 348.59144858207014L621.0144097358703 348.59144858207014L613.5466779238517 345.43379655044487Q605.7332177872025 342.1148046339922 599.3487680590259 338.0352104033524Q592.9643183308496 333.97866472768794 589.1382582049388 328.009088989068Q585.3352466340033 322.0395132504482 585.3352466340033 313.2349652498583L585.3352466340033 313.2349652498583Q585.3352466340033 303.4393293853276 589.8988605191258 297.14707387705266Q594.4624744042484 290.8317698138023 602.0915461010947 287.76631200207856Q609.7206177979408 284.70085419035485 619.0091854530134 284.70085419035485L619.0091854530134 284.70085419035485Q625.8085091707464 284.70085419035485 629.7267635165587 285.8532819391231Q633.6219693073956 287.00570968789145 635.9498733599077 288.1811859916352Q638.2547288574442 289.3336137404035 640.0986132554735 289.3336137404035L640.0986132554735 289.3336137404035Q641.573720773897 289.3336137404035 642.2421288681826 288.08899177173373Q642.9105369624682 286.84436980306396 643.0718768472958 285.1848738448375L643.0718768472958 285.1848738448375L646.8979369732066 285.1848738448375L648.557432931433 314.5717814384295L644.2473531510394 314.5717814384295Q643.2332167321234 307.7494091657211 640.259953140301 302.28690163655926Q637.2636409935035 296.80134555242216 632.2160074538982 293.57454785587083Q627.1453253593178 290.3247016043442 619.5162536624715 290.3247016043442L619.5162536624715 290.3247016043442Q611.0574339865121 290.3247016043442 605.5718779023749 294.8883154894668Q600.0863218182377 299.45192937458927 600.0863218182377 309.0862253542923L600.0863218182377 309.0862253542923Q600.0863218182377 314.733121323257 602.4142258707496 318.5361328941925Q604.7421299232617 322.3621930201033 609.0522097036552 325.17411672709795Q613.3622894840487 328.009088989068 619.170525337841 330.49833292640756L619.170525337841 330.49833292640756L626.9839854744902 333.81732484286033Q634.2903774016812 336.7905884346826 640.7439727947838 340.777988445421Q647.2206167428617 344.76538845615926 651.3002109735015 350.8963040796067Q655.356756649166 357.0502682580295 655.356756649166 366.6615156827572L655.356756649166 366.6615156827572Q655.356756649166 373.96790760994827 652.775318491925 379.86833768364204Q650.2169288896592 385.74571920236053 645.3075866799063 389.82531343300025Q640.4212930251286 393.8818591086648 633.5297750874942 396.04842327634924Q626.6382571498597 398.1919388890583 618.1794374739003 398.1919388890583ZM705.6487036054151 396.20976316117674L668.7940641998044 396.20976316117674L668.7940641998044 391.39261517132525Q674.1182803991142 391.39261517132525 676.5153301165523 390.72420707703964Q678.9123798339903 390.0788475377293 679.5116422633498 388.1658174747739Q680.087856137734 386.25278741181853 680.087856137734 382.42672728590776L680.087856137734 382.42672728590776L680.087856137734 332.9875768637471Q680.087856137734 328.6774970833536 679.0967682737931 327.24848667488095Q678.0826318548771 325.84252482138356 675.2707081478824 325.84252482138356L675.2707081478824 325.84252482138356L669.4624722940902 325.84252482138356L669.4624722940902 320.86403694670446L689.6991035624617 317.5450450302518L694.1935717826581 317.5450450302518L694.1935717826581 382.42672728590776Q694.1935717826581 386.41412729664614 694.8619798769437 388.32715735960153Q695.507339416254 390.2401874225569 697.9274376886674 390.8164012969411Q700.3244874061055 391.39261517132525 705.6487036054151 391.39261517132525L705.6487036054151 391.39261517132525L705.6487036054151 396.20976316117674ZM686.7258399706394 302.95530973084493L686.7258399706394 302.95530973084493Q682.5771000750735 302.95530973084493 680.087856137734 300.28167735370243Q677.5986122003944 297.63109353153527 677.5986122003944 293.98942184542744L677.5986122003944 293.98942184542744Q677.5986122003944 290.0020218346891 680.087856137734 287.35143801252195Q682.5771000750735 284.70085419035485 686.7258399706394 284.70085419035485L686.7258399706394 284.70085419035485Q689.5377636776342 284.70085419035485 691.6121336254171 285.9454761590246Q693.6865035732001 287.19009812769445 694.7697856570422 289.26446807547734Q695.8530677408845 291.33883802326034 695.8530677408845 293.98942184542744L695.8530677408845 293.98942184542744Q695.8530677408845 297.63109353153527 693.2716295836435 300.28167735370243Q690.7132399813778 302.95530973084493 686.7258399706394 302.95530973084493ZM751.9302019959505 431.3818580535857L751.9302019959505 431.3818580535857Q742.641634340878 431.3818580535857 734.9203684241303 429.2383424408765Q727.222151062358 427.0717782731922 722.6585371772354 422.50816438806964Q718.094923292113 417.9445505029471 718.094923292113 410.82254701555894L718.094923292113 410.82254701555894Q718.094923292113 404.6685828371361 722.2436631876789 400.35850305674273Q726.3924030832447 396.04842327634924 736.5107187174306 393.0521111295516L736.5107187174306 393.0521111295516L747.2974424459019 394.2275874332953Q740.8207984978241 395.218675297236 737.3404666965437 397.7770648995016Q733.8601348952634 400.35850305674273 732.6155129265936 403.5161550883679Q731.3708909579238 406.67380711999306 731.3708909579238 409.4857308269877L731.3708909579238 409.4857308269877Q731.3708909579238 417.114802523834 737.5018065813713 421.60927074403037Q743.6327222048187 426.08069040925136 754.096766163635 426.08069040925136L754.096766163635 426.08069040925136Q761.0574297661956 426.08069040925136 766.4507916304314 424.0063204614685Q771.844153494667 421.9319505136855 774.9326598613661 417.9445505029471Q777.9981176730898 413.9571504922087 777.9981176730898 408.1489146384165L777.9981176730898 408.1489146384165Q777.9981176730898 401.85665913014145 773.3423095680658 398.79120131841773Q768.7095500180171 395.70269495171874 756.9086898706297 395.70269495171874L756.9086898706297 395.70269495171874L740.498118728169 395.70269495171874Q734.8512227592041 395.70269495171874 730.6102886437368 393.7205192238372Q726.3924030832447 391.73834349595575 724.0644990307328 388.58069146433047Q721.7365949782208 385.4230394327053 721.7365949782208 381.78136774659754L721.7365949782208 381.78136774659754Q721.7365949782208 376.1344717776327 727.222151062358 371.1559839029536Q732.6846585915198 366.1774960282745 743.3100424351636 362.35143590236373L743.3100424351636 362.35143590236373L749.2796181737834 364.1722717454177Q748.2885303098427 364.35666018522056 745.7070921526017 365.3477480491614Q743.1487025503361 366.3388359131021 740.313730288366 367.99833187132845Q737.5018065813713 369.6578278295549 735.5196308534898 371.8243919972392Q733.5144065706329 373.96790760994827 733.5144065706329 376.61849143211543L733.5144065706329 376.61849143211543Q733.5144065706329 379.107735369455 736.5798643823566 381.36649375704087Q739.6683707490557 383.60220358965137 748.4498701946702 383.60220358965137L748.4498701946702 383.60220358965137L760.5734101117129 383.60220358965137Q776.3386217148634 383.60220358965137 783.4606252022515 388.99556545388714Q790.6056772446151 394.3889273181228 790.6056772446151 404.6685828371361L790.6056772446151 404.6685828371361Q790.6056772446151 414.1415389320117 785.3045096002809 420.0189204507301Q779.9802934009713 425.91935052442386 771.1987939553567 428.66212856649247Q762.3942459547668 431.3818580535857 751.9302019959505 431.3818580535857ZM752.5986100902362 368.50540008078656L752.5986100902362 368.50540008078656Q744.9695383933899 368.50540008078656 737.7553406861003 366.016156143447Q730.5411429788107 363.52691220610745 725.8853348737867 357.9491619020688Q721.2295267687628 352.3944601530055 721.2295267687628 342.9445526131053L721.2295267687628 342.9445526131053Q721.2295267687628 335.79950057074177 723.9723048108312 330.82101269606267Q726.7150828528999 325.84252482138356 731.3708909579238 322.6848727897584Q736.0036505079725 319.55026931310863 741.6505464769373 318.12125890463585Q747.2974424459019 316.7152970511386 752.9443384148667 316.7152970511386L752.9443384148667 316.7152970511386Q761.0574297661956 316.7152970511386 768.1102875886577 319.3658808733056Q775.1631454111198 322.0395132504482 779.5654194114147 327.75555488433895Q783.9676934117097 333.47159651822983 783.9676934117097 342.7832127282778L783.9676934117097 342.7832127282778Q783.9676934117097 352.2331202681779 779.4040795265871 357.88001623714274Q774.8404656414647 363.52691220610745 767.626267934175 366.016156143447Q760.4120702268854 368.50540008078656 752.5986100902362 368.50540008078656ZM752.275930320581 363.18118388147695L752.275930320581 363.18118388147695Q761.8871777453088 363.18118388147695 765.6210436513181 357.6264821324137Q769.3549095573275 352.0717803833504 769.3549095573275 341.9534647491646L769.3549095573275 341.9534647491646Q769.3549095573275 336.14522889537227 767.879802038904 331.6507606751759Q766.3816459655052 327.1793410099549 762.9013141642249 324.69009707261534Q759.3979338079693 322.2008531352758 753.1056782996942 322.2008531352758L753.1056782996942 322.2008531352758Q743.8171106446216 322.2008531352758 740.1523904035384 327.8477491042405Q736.5107187174306 333.47159651822983 736.5107187174306 343.1058924979329L736.5107187174306 343.1058924979329Q736.5107187174306 351.7260520587199 739.8297106338832 357.4651422475861Q743.1487025503361 363.18118388147695 752.275930320581 363.18118388147695ZM795.7455050041218 335.13109247645616L795.7455050041218 335.13109247645616Q792.7722414122995 335.13109247645616 790.9283570142702 333.4024508533038Q789.1075211712164 331.6507606751759 789.1075211712164 329.50724506246684L789.1075211712164 329.50724506246684Q789.1075211712164 327.8477491042405 789.4532494958468 327.0180011251273Q789.7759292655019 326.18825314601406 789.7759292655019 325.35850516690095L789.7759292655019 325.35850516690095Q789.7759292655019 324.34436874798484 788.9461812863888 323.5146207688716Q788.1164333072755 322.6848727897584 786.4569373490492 322.6848727897584L786.4569373490492 322.6848727897584Q784.9587812756504 322.6848727897584 782.7230714430399 324.4365629678863Q780.4873616104294 326.18825314601406 777.9981176730898 330.49833292640756L777.9981176730898 330.49833292640756L774.6791257566371 327.3406808947824Q777.4910494636317 322.3621930201033 781.5706436942716 319.55026931310863Q785.627189369936 316.7152970511386 790.4443373597876 316.7152970511386L790.4443373597876 316.7152970511386Q795.9068448889494 316.7152970511386 799.2258368054021 319.6194149780347Q802.5448287218549 322.5235329049309 802.5448287218549 327.3406808947824L802.5448287218549 327.3406808947824Q802.5448287218549 330.82101269606267 800.8161870987024 332.9875768637471Q799.0644969205746 335.13109247645616 795.7455050041218 335.13109247645616ZM897.9658463198712 396.20976316117674L861.6413236786939 396.20976316117674L861.6413236786939 391.39261517132525Q866.619811553373 391.39261517132525 868.9246670509096 390.9085955168425Q871.2525711034216 390.4015273073844 871.9209791977073 388.58069146433047Q872.5893872919928 386.75985562127664 872.5893872919928 382.77245561053826L872.5893872919928 382.77245561053826L872.5893872919928 342.4374844036473Q872.5893872919928 337.4589965289682 871.091231218594 333.47159651822983Q869.5930751451954 329.50724506246684 866.2049375638164 327.08714679005334Q862.7937514274622 324.69009707261534 857.1468554584974 324.69009707261534L857.1468554584974 324.69009707261534Q849.5177837616513 324.69009707261534 844.7006357717996 328.8388369681812Q839.8834877819481 332.9875768637471 836.0804762110128 338.45008439290893L836.0804762110128 338.45008439290893L836.0804762110128 331.3280809055208Q840.0678762217511 326.3495930308417 844.216616117317 323.09974677931507Q848.3653560128829 319.87294908276374 853.2516496676606 318.30564734443885Q858.1379433224382 316.7152970511386 864.1305676160334 316.7152970511386L864.1305676160334 316.7152970511386Q875.4013109989876 316.7152970511386 880.9560127480509 322.6848727897584Q886.5337630520894 328.6774970833536 886.5337630520894 340.6166485605934L886.5337630520894 340.6166485605934L886.5337630520894 382.42672728590776Q886.5337630520894 386.25278741181853 887.1791225913996 388.1658174747739Q887.8475306856853 390.0788475377293 890.2676289580988 390.72420707703964Q892.6646786755368 391.39261517132525 897.9658463198712 391.39261517132525L897.9658463198712 391.39261517132525L897.9658463198712 396.20976316117674ZM848.3653560128829 396.20976316117674L812.0177848167305 396.20976316117674L812.0177848167305 391.39261517132525Q817.4802923458922 391.39261517132525 819.8081963984041 390.72420707703964Q822.1361004509162 390.0788475377293 822.7123143253003 388.1658174747739Q823.2885281996845 386.25278741181853 823.2885281996845 382.42672728590776L823.2885281996845 382.42672728590776L823.2885281996845 332.9875768637471Q823.2885281996845 328.6774970833536 822.2974403357437 327.24848667488095Q821.3063524718029 325.84252482138356 818.4944287648083 325.84252482138356L818.4944287648083 325.84252482138356L812.8475327958436 325.84252482138356L812.8475327958436 320.86403694670446L832.4157559699295 317.5450450302518L836.910224190126 317.5450450302518L836.910224190126 329.82992483212195L837.3942438446086 329.82992483212195L837.3942438446086 382.77245561053826Q837.3942438446086 386.75985562127664 838.0626519388942 388.58069146433047Q838.7310600331798 390.4015273073844 841.128109750618 390.9085955168425Q843.5482080230314 391.39261517132525 848.3653560128829 391.39261517132525L848.3653560128829 391.39261517132525L848.3653560128829 396.20976316117674ZM995.3920882007442 396.20976316117674L959.0445170045917 396.20976316117674L959.0445170045917 391.39261517132525Q964.0230048792707 391.39261517132525 966.3509089317827 390.9085955168425Q968.6788129842947 390.4015273073844 969.3241725236051 388.58069146433047Q969.9925806178907 386.75985562127664 969.9925806178907 382.77245561053826L969.9925806178907 382.77245561053826L969.9925806178907 342.4374844036473Q969.9925806178907 337.4589965289682 968.4944245444918 333.47159651822983Q967.0193170260684 329.50724506246684 963.6081308897142 327.08714679005334Q960.19694475336 324.69009707261534 954.5730973393706 324.69009707261534L954.5730973393706 324.69009707261534Q946.920977087549 324.69009707261534 942.1268776526729 328.8388369681812Q937.3097296628214 332.9875768637471 933.4836695369105 338.45008439290893L933.4836695369105 338.45008439290893L933.4836695369105 331.3280809055208Q937.4710695476488 326.3495930308417 941.6198094432148 323.09974677931507Q945.7685493387808 319.87294908276374 950.6548429935583 318.30564734443885Q955.5641852033114 316.7152970511386 961.5337609419312 316.7152970511386L961.5337609419312 316.7152970511386Q972.8275528798607 316.7152970511386 978.3822546289239 322.6848727897584Q983.9369563779871 328.6774970833536 983.9369563779871 340.6166485605934L983.9369563779871 340.6166485605934L983.9369563779871 382.42672728590776Q983.9369563779871 386.25278741181853 984.6053644722729 388.1658174747739Q985.2737725665585 390.0788475377293 987.6708222839966 390.72420707703964Q990.0678720014346 391.39261517132525 995.3920882007442 391.39261517132525L995.3920882007442 391.39261517132525L995.3920882007442 396.20976316117674ZM945.7685493387808 396.20976316117674L909.4209781426282 396.20976316117674L909.4209781426282 391.39261517132525Q914.9065342267653 391.39261517132525 917.2344382792774 390.72420707703964Q919.5392937768139 390.0788475377293 920.1385562061735 388.1658174747739Q920.7147700805576 386.25278741181853 920.7147700805576 382.42672728590776L920.7147700805576 382.42672728590776L920.7147700805576 332.9875768637471Q920.7147700805576 328.6774970833536 919.7236822166169 327.24848667488095Q918.7095457977007 325.84252482138356 915.8976220907061 325.84252482138356L915.8976220907061 325.84252482138356L910.2507261217413 325.84252482138356L910.2507261217413 320.86403694670446L929.8419978508026 317.5450450302518L934.3134175160237 317.5450450302518L934.3134175160237 329.82992483212195L934.8204857254817 329.82992483212195L934.8204857254817 382.77245561053826Q934.8204857254817 386.75985562127664 935.4888938197673 388.58069146433047Q936.1342533590775 390.4015273073844 938.554351631491 390.9085955168425Q940.9514013489293 391.39261517132525 945.7685493387808 391.39261517132525L945.7685493387808 391.39261517132525L945.7685493387808 396.20976316117674ZM1044.1858790835945 398.0305990042307L1044.1858790835945 398.0305990042307Q1026.0927634279324 398.0305990042307 1017.5417495320712 387.4974093804883Q1008.9907356362103 376.96421975674593 1008.9907356362103 358.20269600679785L1008.9907356362103 358.20269600679785Q1008.9907356362103 345.27245666561737 1012.8859414270472 335.9608404555694Q1016.8041957728594 326.6722728004968 1024.6868015744349 321.6937849258177Q1032.56940737601 316.7152970511386 1044.347218968422 316.7152970511386L1044.347218968422 316.7152970511386Q1054.7882143722632 316.7152970511386 1061.2648583203409 320.2878230723203Q1067.741502268419 323.8603490935021 1071.221834069699 329.7377306122205Q1074.7021658709796 335.6381606859143 1075.9467878396495 342.5988242884748Q1077.1914098083193 349.58253644601086 1077.1914098083193 356.5432000485714L1077.1914098083193 356.5432000485714L1077.1914098083193 358.04135612197024L1021.4369553229081 358.04135612197024L1021.5982952077356 352.740188477636L1061.7719265297992 352.740188477636Q1061.7719265297992 342.7832127282778 1060.181576236499 335.8916947906433Q1058.614274498174 329.0001768530087 1054.8804085921647 325.427650831827Q1051.146542686155 321.8551248106453 1044.5085588532497 321.8551248106453L1044.5085588532497 321.8551248106453Q1037.5478952506892 321.8551248106453 1033.1456212503945 325.68118493655606Q1028.7433472500993 329.50724506246684 1026.6689773023163 336.88278265458405Q1024.5946073545333 344.25832024670126 1024.4332674697057 355.0450439751727L1024.4332674697057 355.0450439751727Q1024.4332674697057 362.1900960175361 1025.3321611137449 368.66673996561406Q1026.2541033127595 375.143383913692 1028.8355414700009 380.2832116731987Q1031.3939310722662 385.4230394327053 1036.1188848422166 388.419351579503Q1040.866887167142 391.39261517132525 1048.495958863988 391.39261517132525L1048.495958863988 391.39261517132525Q1055.6179623513763 391.39261517132525 1060.2737704564001 388.8342255690595Q1064.9295785614245 386.25278741181853 1067.741502268419 382.10404751625265Q1070.5534259754136 377.95530762068665 1072.0515820488126 373.64522784029316L1072.0515820488126 373.64522784029316L1076.546050269009 375.6274035681747Q1074.7021658709796 381.2742995371394 1071.152688404773 386.41412729664614Q1067.5801623835914 391.55395505615274 1061.1957126554148 394.80380130767946Q1054.7882143722632 398.0305990042307 1044.1858790835945 398.0305990042307ZM1122.8275486595444 398.1919388890583L1122.8275486595444 398.1919388890583Q1108.2378133601374 398.1919388890583 1100.5165474433898 388.0044775899464Q1092.7952815266422 377.79396773585916 1092.7952815266422 358.70976421625585L1092.7952815266422 358.70976421625585Q1092.7952815266422 343.93564047704615 1097.1975555269369 334.64707282197355Q1101.599829527232 325.35850516690095 1109.5515809937333 321.02537683153207Q1117.52638101521 316.7152970511386 1127.9904249740262 316.7152970511386L1127.9904249740262 316.7152970511386Q1134.9510885765872 316.7152970511386 1139.5147024617095 318.62832711409396Q1144.0783163468318 320.54135717704935 1147.1437741585555 323.09974677931507Q1150.2092319702792 325.68118493655606 1152.5371360227914 327.50202077961L1152.5371360227914 327.50202077961L1152.5371360227914 335.9608404555694Q1150.2092319702792 332.6418485391166 1146.8902400538268 329.4150508425654Q1143.571248137374 326.18825314601406 1139.3533625768819 324.0216889783296Q1135.1124284614143 321.8551248106453 1129.8112608170804 321.8551248106453L1129.8112608170804 321.8551248106453Q1119.6929451828946 321.8551248106453 1114.0460492139296 329.9221190520234Q1108.399153244965 337.9660647384262 1108.399153244965 356.704539933399L1108.399153244965 356.704539933399Q1108.399153244965 373.13815963083516 1113.2163012348165 382.1962417361541Q1118.033449224668 391.23127528649763 1128.6357845133366 391.23127528649763L1128.6357845133366 391.23127528649763Q1133.960000712646 391.23127528649763 1138.0165463883104 388.99556545388714Q1142.0961406189504 386.75985562127664 1145.3229383155017 383.8557376943804Q1148.549736012053 380.9516197674843 1151.0389799493928 378.7850555997999L1151.0389799493928 378.7850555997999L1151.0389799493928 385.74571920236053Q1149.056804221511 387.40521516058686 1145.2307440956001 390.4015273073844Q1141.4277325246649 393.3978394541821 1135.9421764405279 395.7948891716202Q1130.479668911366 398.1919388890583 1122.8275486595444 398.1919388890583ZM1172.4510875215078 396.20976316117674L1149.3794839911661 396.20976316117674L1147.71998803294 385.1003596630502L1147.71998803294 297.30841376188016Q1147.71998803294 292.8139455416838 1146.7289001689992 291.33883802326034Q1145.7378123050585 289.8406819498615 1142.5801602734332 289.8406819498615L1142.5801602734332 289.8406819498615L1136.771924419641 289.8406819498615L1136.771924419641 285.02353396001L1157.0316042429877 281.38186227390213L1161.6643637930365 281.38186227390213L1161.6643637930365 383.60220358965137Q1161.6643637930365 388.419351579503 1163.0703256465335 389.8944590979264Q1164.4993360550066 391.39261517132525 1168.1410077411142 391.39261517132525L1168.1410077411142 391.39261517132525L1172.4510875215078 391.39261517132525L1172.4510875215078 396.20976316117674ZM1149.056804221511 325.01277684227045L1147.235968378457 325.01277684227045L1147.235968378457 322.5235329049309L1149.056804221511 322.5235329049309L1149.056804221511 325.01277684227045Z " fill="#888888" transform="matrix(0.7462997484639259,0,0,0.746299748463926,0,34.03226545241429)"/></g></svg>